<svg width="203" height="332" viewBox="0 0 203 332" fill="none" xmlns="http://www.w3.org/2000/svg">
<path d="M0.599609 230.701L8.65592 240.877L12.6841 226.461L0.599609 230.701Z" fill="#495CA8"/>
<path d="M196.707 244.484H183.986L188.014 229.855L196.707 244.484Z" fill="#495CA8"/>
<path d="M168.084 61.4054C167.874 69.3642 157.088 85.0668 157.088 85.0668L154.094 60.6719L168.084 61.4054Z" fill="#333333"/>
<path d="M161.938 52.1923C166.542 75.6307 147.31 109.859 120.491 106.254C98.036 103.237 81.4508 86.8084 79.4673 63.0048C76.7112 29.9315 98.3642 14.8789 121.021 14.8789C143.678 14.8789 157.274 28.4474 161.938 52.1923Z" fill="#333333"/>
<path d="M141.209 76.6094H90.5742V162.57H141.209V76.6094Z" fill="#FDBD9D"/>
<path d="M107.648 114.878C119.424 114.407 117.774 116.157 129.551 111.11C137.794 107.577 141.208 102.71 141.208 102.71L141.326 87.4805L107.648 113.936V114.878Z" fill="#B37454"/>
<path d="M29.6963 146.204L87.6314 127.363C87.6314 127.363 88.338 151.385 106.472 150.679C124.606 149.972 141.21 127.363 141.21 127.363L192.257 143.837C196.672 144.32 200.676 149.265 200.676 153.034C200.676 174.755 176.445 261.081 171.473 276.205C165.82 293.397 168.511 332.256 168.511 332.256H34.7339L25.2217 202.961L26.8703 152.091C26.9379 150.599 28.268 146.642 29.6963 146.204Z" fill="#4D7BBC"/>
<path d="M43.9333 338.767H190.482C197.468 257.896 192.716 186.371 196.466 148.641C197.032 142.959 159.634 128.515 147.714 127.231C146.521 124.2 142.352 121.204 141.101 120.367C141.098 120.391 138.052 148.811 116.276 148.641C95.3484 148.478 94.8122 123.799 94.8122 123.799C94.8122 123.799 91.1042 126.25 89.6292 130.172C80.53 130.721 38.1731 140.095 29.6337 145.501C26.8104 147.288 52.0189 175.507 51.9671 202.534C51.8839 245.861 49.1575 304.57 43.9333 338.767Z" fill="#4D7BBC"/>
<path d="M133.934 168.032C125.306 168.032 114.901 161.969 114.343 161.64C114.138 161.52 114.072 161.258 114.193 161.057C114.315 160.855 114.576 160.789 114.781 160.909C114.953 161.01 132.006 170.944 140.131 165.575C148.279 160.186 146.992 130.641 146.979 130.343C146.968 130.109 147.15 129.911 147.388 129.9C147.633 129.882 147.825 130.069 147.835 130.305C147.893 131.54 149.156 160.63 140.606 166.282C138.705 167.539 136.39 168.032 133.934 168.032Z" fill="#171717"/>
<path d="M108.508 208.766H97.6604C95.6345 208.766 93.986 207.113 93.986 205.08V160.015C93.986 159.805 93.9392 159.749 93.9392 159.749C93.75 159.625 92.7799 160.091 92.3665 160.291L92.1354 160.402C91.24 160.829 90.1484 161.415 88.8854 162.097C82.0945 165.748 71.8345 171.269 67.463 165.424C61.1044 156.917 74.742 132.88 75.0298 131.934C75.0995 131.709 75.3366 131.586 75.5627 131.65C75.7878 131.719 75.9153 131.958 75.8465 132.184C75.7768 132.411 62.0456 156.751 68.1463 164.909C72.0756 170.166 81.9491 164.856 88.482 161.341C89.7559 160.655 90.8556 160.064 91.7689 159.629L91.996 159.519C92.9223 159.072 93.7978 158.644 94.3934 159.023C94.6892 159.21 94.8396 159.544 94.8396 160.014V205.079C94.8396 206.64 96.1046 207.909 97.6594 207.909H108.507C108.743 207.909 108.933 208.101 108.933 208.337C108.934 208.574 108.744 208.766 108.508 208.766Z" fill="#171717"/>
<path d="M103.734 178.433C101.823 178.433 100.267 176.878 100.267 174.967C100.267 173.055 101.822 171.5 103.734 171.5C105.645 171.5 107.2 173.055 107.2 174.967C107.2 176.878 105.645 178.433 103.734 178.433ZM103.734 172.301C102.264 172.301 101.068 173.496 101.068 174.967C101.068 176.437 102.264 177.632 103.734 177.632C105.204 177.632 106.399 176.437 106.399 174.967C106.399 173.496 105.204 172.301 103.734 172.301Z" fill="#171717"/>
<path d="M103.734 199.234C101.823 199.234 100.267 197.483 100.267 195.333C100.267 193.183 101.822 191.434 103.734 191.434C105.645 191.434 107.2 193.183 107.2 195.333C107.2 197.483 105.645 199.234 103.734 199.234ZM103.734 192.335C102.264 192.335 101.068 193.679 101.068 195.333C101.068 196.988 102.264 198.333 103.734 198.333C105.204 198.333 106.399 196.988 106.399 195.333C106.399 193.679 105.204 192.335 103.734 192.335Z" fill="#171717"/>
<path d="M184.072 304.226C189.86 304.226 194.552 302.802 194.552 301.046C194.552 299.291 189.86 297.867 184.072 297.867C178.284 297.867 173.592 299.291 173.592 301.046C173.592 302.802 178.284 304.226 184.072 304.226Z" fill="#E69166"/>
<path d="M147.325 76.0199C152.716 50.7694 141.721 27.0195 122.768 22.9729C103.814 18.9264 84.0787 36.1155 78.6878 61.366C73.2969 86.6164 84.2918 110.366 103.245 114.413C122.199 118.459 141.934 101.27 147.325 76.0199Z" fill="#FDBD9D"/>
<path d="M158.691 82.228C161.907 75.4908 161.409 68.5469 157.579 66.7183C153.748 64.8897 148.036 68.8688 144.82 75.606C141.603 82.3431 142.101 89.2871 145.932 91.1157C149.762 92.9443 155.475 88.9651 158.691 82.228Z" fill="#FDBD9D"/>
<path d="M44.2866 227.818C40.9988 299.519 24.4359 310.008 14.1507 308.94C3.86557 307.872 2.35375 269.097 7.04103 223.951C11.7283 178.805 23.8656 143.073 34.1507 144.141C44.4357 145.208 46.3658 182.477 44.2866 227.818Z" fill="#FDBD9D"/>
<path d="M166.292 284.211C166.292 284.785 166.129 285.384 165.816 285.996C164.05 289.465 157.456 293.485 147.997 297.385C146.961 297.811 145.89 298.237 144.787 298.661C128.172 305.046 104.334 310.901 82.1163 313.204C42.5933 317.302 9.75387 312.915 8.76719 303.407C7.7805 293.897 10.112 277.873 78.5461 278.768C98.2134 279.025 114.897 276.865 128.262 274.976C129.357 274.823 130.429 274.67 131.479 274.519C152.99 271.458 165.088 269.783 166.207 282.209C166.264 282.84 166.292 283.507 166.292 284.211Z" fill="#FDBD9D"/>
<path d="M120.325 105.284L119.21 106.929L118.104 108.594C117.378 109.698 116.671 110.806 116.069 111.855C115.919 112.117 115.78 112.373 115.654 112.618C115.586 112.744 115.535 112.855 115.474 112.973C115.422 113.084 115.371 113.193 115.328 113.292C115.293 113.383 115.247 113.486 115.234 113.544C115.202 113.627 115.214 113.642 115.209 113.663C115.225 113.642 115.238 113.619 115.246 113.595L115.263 113.55L115.284 113.484C115.297 113.44 115.308 113.394 115.316 113.349C115.347 113.231 115.383 112.901 115.375 112.785L115.389 113.045L115.605 117.205L115.803 121.364L115.974 125.522C116.092 128.295 116.183 131.067 116.249 133.839C116.323 136.925 113.887 139.48 110.808 139.554C107.729 139.628 105.174 137.191 105.1 134.113C105.099 134.051 105.098 133.966 105.099 133.904C105.136 131.122 105.199 128.341 105.288 125.56L105.415 121.388L105.57 117.217L105.743 113.046L105.754 112.785C105.76 112.498 105.805 111.993 105.864 111.705C105.891 111.574 105.921 111.444 105.953 111.315L106.003 111.122L106.029 111.026L106.053 110.952C106.115 110.762 106.182 110.574 106.251 110.388C106.377 110.088 106.512 109.779 106.634 109.55C106.762 109.291 106.88 109.088 107.004 108.869C107.486 108.042 107.955 107.389 108.431 106.752C109.375 105.494 110.333 104.379 111.315 103.293C111.804 102.75 112.301 102.222 112.807 101.703L113.568 100.927C113.825 100.664 114.078 100.425 114.36 100.149C115.918 98.6218 118.418 98.6466 119.944 100.204C121.283 101.569 121.428 103.659 120.395 105.182L120.325 105.284Z" fill="#E69166"/>
<path d="M116.132 126.04C120.216 132.672 113.508 154.9 103.451 158.835C94.1181 162.487 82.2443 152.354 78.1606 145.722C74.0769 139.09 75.8962 122.55 84.4299 117.295C92.9639 112.04 112.048 119.408 116.132 126.04Z" fill="#FDBD9D"/>
<path d="M82.2635 89.8038L114.267 122.828C116.624 125.26 116.563 129.143 114.13 131.501C111.698 133.858 107.815 133.797 105.457 131.365C105.287 131.189 105.109 130.978 104.964 130.789L77.2804 94.0685C76.188 92.6195 76.4772 90.5592 77.926 89.4667C79.2651 88.4571 81.1267 88.628 82.2635 89.8038Z" fill="#E69166"/>
<path d="M80.1443 89.8038L112.147 122.828C114.505 125.26 114.444 129.143 112.011 131.501C109.579 133.858 105.696 133.797 103.338 131.365C103.168 131.189 102.99 130.978 102.845 130.789L75.1613 94.0685C74.0688 92.6195 74.358 90.5592 75.8069 89.4667C77.1461 88.4571 79.0076 88.628 80.1443 89.8038Z" fill="#FDBD9D"/>
<path d="M121.738 104.343L120.624 105.987L119.517 107.652C118.792 108.756 118.084 109.865 117.482 110.914C117.332 111.176 117.193 111.432 117.067 111.677C116.999 111.802 116.948 111.914 116.887 112.032C116.835 112.142 116.784 112.252 116.741 112.351C116.706 112.442 116.66 112.544 116.647 112.602C116.615 112.685 116.627 112.701 116.623 112.722C116.638 112.701 116.651 112.678 116.659 112.654L116.676 112.609L116.697 112.543C116.71 112.498 116.721 112.453 116.729 112.407C116.761 112.289 116.796 111.959 116.789 111.844L116.802 112.104L117.019 116.264L117.217 120.423L117.387 124.581C117.505 127.354 117.596 130.126 117.662 132.898C117.736 135.983 115.3 138.539 112.221 138.613C109.142 138.686 106.587 136.25 106.513 133.171C106.512 133.109 106.511 133.024 106.512 132.963C106.55 130.181 106.612 127.4 106.701 124.619L106.828 120.447L106.983 116.276L107.157 112.105L107.168 111.844C107.174 111.556 107.218 111.052 107.277 110.763C107.305 110.633 107.334 110.503 107.366 110.374L107.416 110.181L107.442 110.085L107.466 110.011C107.528 109.821 107.595 109.633 107.665 109.447C107.79 109.146 107.926 108.838 108.047 108.609C108.175 108.349 108.294 108.146 108.417 107.928C108.899 107.101 109.368 106.448 109.844 105.811C110.788 104.553 111.746 103.438 112.728 102.351C113.217 101.809 113.714 101.281 114.22 100.762L114.981 99.9856C115.238 99.7225 115.491 99.4842 115.774 99.2071C117.331 97.6804 119.831 97.7052 121.358 99.2624C122.696 100.628 122.842 102.718 121.808 104.241L121.738 104.343Z" fill="#FDBD9D"/>
<path d="M91.6442 115.547C92.5499 117.115 88.9732 118.947 86.725 120.245C84.4767 121.543 81.9201 121.324 81.0144 119.755C80.1087 118.187 81.1971 115.863 83.4455 114.565C85.6938 113.267 90.7385 113.978 91.6442 115.547Z" fill="#FDBD9D"/>
<path d="M83.7737 129.378C86.4335 127.842 87.5135 124.733 86.186 122.434C84.8585 120.135 81.6262 119.516 78.9664 121.051C76.3066 122.587 75.2265 125.696 76.554 127.995C77.8815 130.294 81.1139 130.913 83.7737 129.378Z" fill="#FDBD9D"/>
<path d="M82.4736 142.519C84.9263 141.103 85.3352 137.219 83.3869 133.845C81.4387 130.471 77.8711 128.883 75.4184 130.299C72.9658 131.715 72.5569 135.599 74.5051 138.973C76.4534 142.347 80.021 143.935 82.4736 142.519Z" fill="#FDBD9D"/>
<path d="M159.225 295.75C152.575 291.695 147.165 274.852 154.339 266.78C160.997 259.289 176.177 262.928 182.827 266.983C189.476 271.038 195.364 286.601 190.146 295.158C184.928 303.714 165.874 299.805 159.225 295.75Z" fill="#FAB38F"/>
<path d="M184.512 299.99C182.993 299.004 185.349 295.748 186.762 293.57C188.176 291.393 190.554 290.428 192.073 291.414C193.592 292.401 196.437 299.459 195.023 301.636C193.609 303.813 186.031 300.977 184.512 299.99Z" fill="#FAB38F"/>
<path d="M186.242 291.377C184.015 289.931 183.566 286.671 185.239 284.095C186.912 281.519 190.073 280.603 192.3 282.049C194.526 283.495 197.874 288.465 196.201 291.041C194.528 293.617 188.468 292.823 186.242 291.377Z" fill="#FAB38F"/>
<path d="M183.557 279.939C180.289 277.817 178.891 274.171 180.433 271.796C181.976 269.421 185.875 269.216 189.143 271.338C192.411 273.46 197.272 279.009 195.729 281.384C194.187 283.759 186.825 282.061 183.557 279.939Z" fill="#FAB38F"/>
<path d="M179.789 270.517C176.521 268.395 175.122 264.749 176.665 262.374C178.207 259.999 182.107 259.794 185.375 261.916C188.643 264.038 193.504 269.587 191.961 271.962C190.419 274.338 183.057 272.64 179.789 270.517Z" fill="#FAB38F"/>
<path d="M166.206 282.207C166.11 283.511 165.978 284.776 165.815 285.993C164.833 293.323 162.704 299.017 160.342 302.22C160.125 302.364 159.911 302.481 159.697 302.578C156.866 303.847 152.74 301.923 147.996 297.383C146.96 297.809 145.889 298.235 144.786 298.659C139.652 293.45 133.873 285.325 128.261 274.974C129.356 274.821 130.428 274.668 131.478 274.517C125.899 264.52 120.44 252.295 115.892 238.52C107.885 214.262 101.448 177.339 93.2831 157.269C88.9734 146.674 90.5372 138.787 93.0995 134.931C93.2008 134.875 93.302 134.823 93.401 134.778C97.706 132.847 102.649 131.552 110.593 145.141C118.966 159.464 130.534 189.312 142.74 211.672C151.242 227.243 161.053 246.308 164.054 258.42C166.211 267.127 166.717 275.252 166.206 282.207Z" fill="#E69166"/>
<path d="M160.342 302.223C160.125 302.367 159.911 302.484 159.697 302.581C156.866 303.85 152.74 301.926 147.996 297.386C142.921 292.525 137.137 284.668 131.478 274.52C125.899 264.523 120.44 252.298 115.892 238.523C107.885 214.265 101.448 177.342 93.2831 157.272C88.9734 146.677 90.5372 138.79 93.0995 134.934C93.8979 133.733 94.7928 132.923 95.6383 132.544C99.9433 130.613 104.887 129.317 112.83 142.906C121.203 157.23 132.771 187.078 144.977 209.437C153.479 225.009 163.291 244.074 166.291 256.186C172.044 279.407 166.051 298.504 160.342 302.223Z" fill="#FDBD9D"/>
<path d="M194.417 224.072C184.525 265.051 167.386 305.975 157.334 303.548C147.282 301.122 148.125 256.265 158.016 215.286C167.907 174.307 184.074 143.054 194.126 145.48C204.178 147.906 204.308 183.093 194.417 224.072Z" fill="#FDBD9D"/>
<path d="M31.3447 144.553C36.526 156.8 39.3521 169.988 39.3521 182.941C39.3521 195.894 37.5951 221.749 37.7018 234.093C37.8084 246.438 37.2324 281.148 37.2324 281.148C37.2324 281.148 90.2217 274.318 90.4573 273.141C90.6928 271.963 53.7179 138.43 53.7179 138.43L31.3447 144.553Z" fill="#4D7BBC"/>
<path d="M100.791 83.7116C100.746 83.7116 100.701 83.7031 100.657 83.6851C98.9878 83.0009 97.5523 81.7753 96.6148 80.2338C96.5614 80.1456 96.5489 80.0385 96.5809 79.9404L101.412 65.1693C101.473 64.9838 101.673 64.8825 101.858 64.9436C102.044 65.0042 102.145 65.2037 102.084 65.3892L97.3036 80.0036C98.164 81.3526 99.4441 82.4245 100.925 83.0315C101.106 83.1054 101.192 83.3117 101.118 83.4922C101.062 83.6289 100.93 83.7116 100.791 83.7116Z" fill="#4D2F3D"/>
<path d="M105.055 96.3565C104.224 96.3565 103.317 96.047 102.45 95.4515C102.004 95.1455 101.612 94.7752 101.232 94.4169C100.755 93.9668 100.304 93.5419 99.7688 93.2476C96.8391 91.6383 94.5606 92.2039 92.5502 92.703C92.346 92.7537 92.1461 92.8033 91.95 92.8495C91.76 92.8942 91.5698 92.7764 91.5251 92.5866C91.4804 92.3966 91.5982 92.2065 91.788 92.1617C91.9813 92.1164 92.1783 92.0674 92.3799 92.0174C94.4101 91.5134 96.9366 90.8859 100.109 92.6286C100.723 92.9661 101.228 93.4425 101.717 93.903C102.093 94.2583 102.449 94.5941 102.85 94.8691C103.346 95.21 104.63 95.9554 105.833 95.5197C106.016 95.4534 106.219 95.5479 106.285 95.7315C106.351 95.9149 106.257 96.1176 106.073 96.184C105.754 96.2995 105.412 96.3565 105.055 96.3565Z" fill="#4D2F3D"/>
<path d="M99.0811 97.2851C99.0754 97.2851 99.0694 97.2849 99.0635 97.2845C97.7274 97.1857 96.3948 96.8032 95.2096 96.178C95.0945 96.1174 95.0506 95.9749 95.1112 95.86C95.1719 95.7449 95.3148 95.701 95.4292 95.7616C96.5576 96.3567 97.8262 96.7207 99.0983 96.8149C99.228 96.8244 99.3253 96.9374 99.3158 97.0672C99.3067 97.191 99.2034 97.2851 99.0811 97.2851Z" fill="#4D2F3D"/>
<path d="M98.699 88.9302C98.6931 88.9302 98.6869 88.93 98.6807 88.9296L97.7399 88.8573C97.6101 88.8473 97.513 88.7341 97.5232 88.6046C97.5329 88.4748 97.6447 88.3758 97.7759 88.3877L98.7168 88.46C98.8465 88.4699 98.9436 88.5832 98.9335 88.7127C98.9241 88.8363 98.8211 88.9302 98.699 88.9302Z" fill="#4D2F3D"/>
<path d="M120.541 69.2329C121.044 66.2842 119.53 63.5654 117.158 63.1605C114.786 62.7555 112.455 64.8176 111.952 67.7663C111.448 70.7151 112.963 73.4338 115.335 73.8387C117.707 74.2437 120.038 72.1816 120.541 69.2329Z" fill="#4D2F3D"/>
<path d="M94.8695 65.9202C94.3662 68.869 93.7541 69.8972 89.9859 68.7197C86.3612 67.587 85.7765 67.403 86.28 64.4539C86.7833 61.5051 89.1143 59.4427 91.4863 59.8476C93.858 60.2526 95.3728 62.9714 94.8695 65.9202Z" fill="#4D2F3D"/>
<path d="M115.703 68.0138C115.118 69.0276 114.095 69.533 113.419 69.1429C112.744 68.7529 112.67 67.6146 113.256 66.6008C113.841 65.5869 114.863 65.0815 115.539 65.4716C116.215 65.8619 116.288 67.0002 115.703 68.0138Z" fill="#F3E5D9"/>
<path d="M90.2674 63.7755C89.6821 64.7893 88.6598 65.2948 87.9839 64.9047C87.308 64.5146 87.2347 63.3763 87.82 62.3625C88.4054 61.3487 89.4277 60.8432 90.1035 61.2333C90.7794 61.6236 90.8528 62.7619 90.2674 63.7755Z" fill="#F3E5D9"/>
<path d="M91.1638 65.3036C91.1638 65.6288 90.9003 65.8923 90.5751 65.8923C90.2498 65.8923 89.9863 65.6288 89.9863 65.3036C89.9863 64.9784 90.2498 64.7148 90.5751 64.7148C90.9003 64.7148 91.1638 64.9784 91.1638 65.3036Z" fill="#F3E5D9"/>
<path d="M117.068 69.543C117.068 69.9982 116.699 70.3673 116.244 70.3673C115.789 70.3673 115.42 69.9982 115.42 69.543C115.42 69.0879 115.789 68.7188 116.244 68.7188C116.699 68.7188 117.068 69.0879 117.068 69.543Z" fill="#F3E5D9"/>
<path d="M114.634 55.3988C115.419 56.4276 116.399 57.204 117.502 57.6978C118.595 58.2036 119.816 58.4057 121.075 58.4547C121.704 58.4843 122.353 58.4701 122.996 58.4636C123.638 58.4527 124.272 58.421 124.895 58.3347C125.518 58.2433 126.131 58.1021 126.731 57.8897C127.327 57.666 127.903 57.3492 128.452 56.9326L128.462 56.9254C128.67 56.7675 128.925 56.8883 129.032 57.1949C129.127 57.4658 129.074 57.7913 128.917 57.9723C127.813 59.2484 126.464 60.0066 125.131 60.4471C124.463 60.6725 123.792 60.8366 123.129 60.9771C122.466 61.1166 121.808 61.2226 121.128 61.3079C119.774 61.4609 118.348 61.4777 116.906 60.9841C116.189 60.7392 115.482 60.3559 114.812 59.8185C114.145 59.2804 113.517 58.5698 113.004 57.6916C112.598 56.9956 112.652 55.9462 113.124 55.3475C113.557 54.7977 114.193 54.8191 114.609 55.3655L114.634 55.3988Z" fill="#4D2F3D"/>
<path d="M95.5321 58.5371C95.0525 57.557 94.3692 56.7533 93.5384 56.1635C92.7169 55.565 91.7407 55.1972 90.707 54.9493C90.1914 54.8213 89.6523 54.7261 89.1188 54.6258C88.5865 54.5291 88.0571 54.4513 87.5267 54.4199C86.9966 54.393 86.4662 54.4089 85.9353 54.4859C85.4053 54.5728 84.8764 54.7398 84.3536 54.9943C84.1464 55.095 83.955 54.9531 83.9168 54.6818C83.8831 54.4422 83.9806 54.1816 84.14 54.0576C85.2635 53.1837 86.5039 52.7786 87.6789 52.6333C88.2691 52.5568 88.8507 52.5316 89.4229 52.5246C89.9938 52.5182 90.5559 52.5388 91.1323 52.5801C92.2771 52.6762 93.4595 52.8971 94.5715 53.5428C95.124 53.8634 95.6462 54.297 96.1115 54.8518C96.575 55.4068 96.9778 56.098 97.2572 56.9087C97.4787 57.5513 97.2617 58.4106 96.7726 58.8282C96.3233 59.2117 95.8009 59.0892 95.5469 58.5689L95.5321 58.5371Z" fill="#4D2F3D"/>
<path d="M156.426 72.2384C155.904 72.3668 155.4 72.543 154.92 72.7765C154.446 73.0207 153.996 73.3128 153.575 73.6476C152.741 74.3305 152.024 75.1755 151.421 76.1126C150.814 77.0452 150.32 78.0697 149.904 79.1236C149.698 79.6517 149.513 80.1902 149.35 80.7335C149.268 81.0049 149.194 81.278 149.123 81.55L149.025 81.9566C148.996 82.0849 148.963 82.2377 148.946 82.3353C148.819 83.1063 148.09 83.6279 147.319 83.5C146.548 83.3722 146.026 82.6435 146.154 81.8724C146.161 81.8292 146.17 81.7866 146.181 81.7448L146.189 81.7149C146.241 81.5188 146.285 81.3806 146.335 81.2182L146.487 80.7564C146.593 80.4524 146.702 80.1516 146.819 79.8543C147.052 79.2594 147.307 78.6751 147.588 78.1012C148.152 76.956 148.802 75.844 149.598 74.816C150.386 73.7869 151.323 72.8396 152.424 72.0825C152.979 71.7103 153.572 71.3897 154.194 71.134C154.822 70.8883 155.476 70.7187 156.136 70.6154C156.586 70.5453 157.007 70.8529 157.078 71.3026C157.144 71.7274 156.873 72.1273 156.464 72.2292L156.426 72.2384Z" fill="#B37454"/>
<path d="M168.294 271.02C167.851 271.02 167.485 270.669 167.47 270.224L167.357 266.81C167.256 263.767 164.741 251.04 159.675 240.41C155.143 230.901 154.665 229.941 154.618 229.848C154.514 229.658 154.485 229.427 154.555 229.204C154.692 228.77 155.155 228.53 155.59 228.667C155.937 228.777 155.937 228.777 156.729 230.425C157.312 231.636 158.554 234.228 161.163 239.701C166.407 250.703 168.897 263.512 169.005 266.756L169.118 270.169C169.133 270.624 168.776 271.005 168.321 271.02C168.312 271.02 168.303 271.02 168.294 271.02Z" fill="#B37454"/>
<path d="M114.66 81.449C108.698 81.449 103.848 76.5987 103.848 70.6366C103.848 64.6745 108.698 59.8242 114.66 59.8242C120.622 59.8242 125.472 64.6745 125.472 70.6366C125.472 76.5987 120.622 81.449 114.66 81.449ZM114.66 61.3083C109.516 61.3083 105.332 65.4929 105.332 70.6366C105.332 75.7804 109.516 79.965 114.66 79.965C119.804 79.965 123.988 75.7804 123.988 70.6366C123.988 65.4929 119.804 61.3083 114.66 61.3083Z" fill="#145F83"/>
<path d="M89.0063 75.874C83.5465 75.874 79.1045 71.432 79.1045 65.9722C79.1045 60.5123 83.5465 56.0703 89.0063 56.0703C94.4662 56.0703 98.9082 60.5123 98.9082 65.9722C98.9082 71.432 94.4662 75.874 89.0063 75.874ZM89.0063 57.4293C84.2957 57.4293 80.4634 61.2615 80.4634 65.9722C80.4634 70.6828 84.2957 74.515 89.0063 74.515C93.7169 74.515 97.5492 70.6828 97.5492 65.9722C97.5492 61.2615 93.7169 57.4293 89.0063 57.4293Z" fill="#145F83"/>
<path d="M104.215 67.8663C102.584 67.1683 99.5467 66.2107 98.337 66.6144L97.9072 65.3249C100 64.6274 104.27 66.4115 104.75 66.6171L104.215 67.8663Z" fill="#145F83"/>
<path d="M148.956 68.8732L124.386 72.168L124.566 73.5148L149.137 70.2201L148.956 68.8732Z" fill="#145F83"/>
<path d="M155.366 227.522L151.762 220.102L158.546 221.162L155.366 227.522Z" fill="#495CA8"/>
<path d="M169.58 41.0525C167.273 35.8958 163.157 37.141 160.986 36.4771C161.482 36.2935 161.731 35.268 161.635 33.7546C163.794 19.7452 147.53 7.23169 134.954 8.13803C121.567 9.10258 114.358 7.65576 102 1.86847C92.6883 -2.49277 90.3941 7.11113 89.8289 12.7293C75.2132 13.9413 75.7614 15.4317 76.1269 19.7119C78.1865 43.8249 108.375 46.5397 115.81 46.4448C131.67 46.2418 146.796 42.1369 146.796 42.1369C146.796 42.1369 137.21 55.229 143.332 59.2638C149.454 63.2987 148.142 64.2487 148.159 69.0382C148.176 73.827 147.933 73.9989 147.933 73.9989L144.467 83.5323C144.467 83.5323 151.266 75.1913 152.7 69.0382C152.816 68.5393 157.416 67.0946 161.277 70.5308C164.575 66.9428 175.565 54.4356 169.58 41.0525Z" fill="#333333"/>
<path d="M196.919 146.112C199.639 150.248 201.16 147.596 202.432 162.649C203.704 177.701 196.707 244.484 196.707 244.484C196.707 244.484 177.415 228.583 171.478 226.463C165.542 224.343 151.762 220.103 151.762 220.103C151.762 220.103 159.182 180.457 166.39 166.041C173.599 151.624 181.655 145.264 181.655 145.264L189.713 144.117L196.919 146.112Z" fill="#4D7BBC"/>
<path d="M152.842 220.372L152.006 220.233C152.044 220.005 155.841 197.27 158.463 188.312C161.082 179.369 164.683 168.797 164.719 168.691L165.521 168.965C165.485 169.071 161.89 179.625 159.278 188.55C156.669 197.46 152.88 220.145 152.842 220.372Z" fill="#495CA8"/>
<path d="M31.3408 144.625C25.8286 146.533 22.4364 150.137 15.4402 168.794C12.6056 176.353 0.599609 230.7 0.599609 230.7L37.714 237.167L40.8812 164.978L31.3408 144.625Z" fill="#4D7BBC"/>
<path d="M40.0944 180.207L36.0039 281.125L36.8513 281.159L40.9417 180.241L40.0944 180.207Z" fill="#495CA8"/>
<path d="M115.609 148.631L114.312 146.211L114.358 146.079C114.37 146.044 115.607 142.467 117.032 134.834C118.452 127.224 116.771 117.645 116.754 117.549L117.38 117.438C117.397 117.535 119.098 127.228 117.657 134.95C116.375 141.819 115.24 145.436 115.003 146.155L116.17 148.331L115.609 148.631Z" fill="#B37454"/>
</svg>
